HIERARCHY
ROOT Hips
{
	OFFSET 0.000000 0.000000 0.000000 
	CHANNELS 6 Xposition Yposition Zposition Zrotation Yrotation Xrotation
	JOINT LeftUpLeg
	{
		OFFSET 1.363060 -1.794630 0.839290 
		CHANNELS 3 Zrotation Yrotation Xrotation
		JOINT LeftLeg
		{
			OFFSET 2.448110 -6.726130 0.000000 
			CHANNELS 3 Zrotation Yrotation Xrotation
			JOINT LeftFoot
			{
				OFFSET 2.562200 -7.039590 0.000000 
				CHANNELS 3 Zrotation Yrotation Xrotation
				JOINT LeftToeBase
				{
					OFFSET 0.157640 -0.433110 2.322550 
					CHANNELS 3 Zrotation Yrotation Xrotation
					End Site
					{
						OFFSET 0.000000 0.000000 0.000000 
					}
				}
			}
		}
	}
	JOINT RightUpLeg
	{
		OFFSET -1.305520 -1.794630 0.839290 
		CHANNELS 3 Zrotation Yrotation Xrotation
		JOINT RightLeg
		{
			OFFSET -2.542530 -6.985550 0.000000 
			CHANNELS 3 Zrotation Yrotation Xrotation
			JOINT RightFoot
			{
				OFFSET -2.568260 -7.056230 0.000000 
				CHANNELS 3 Zrotation Yrotation Xrotation
				JOINT RightToeBase
				{
					OFFSET -0.164730 -0.452590 2.363150 
					CHANNELS 3 Zrotation Yrotation Xrotation
					End Site
					{
						OFFSET 0.000000 0.000000 0.000000 
					}
				}
			}
		}
	}
	JOINT Spine
	{
		OFFSET 0.028270 2.035590 -0.193380 
		CHANNELS 3 Zrotation Yrotation Xrotation
		JOINT Spine1
		{
			OFFSET 0.056720 2.048850 -0.042750 
			CHANNELS 3 Zrotation Yrotation Xrotation
			JOINT Neck1
			{
				OFFSET -0.054170 1.746240 0.172020 
				CHANNELS 3 Zrotation Yrotation Xrotation
				JOINT Head
				{
					OFFSET 0.104070 1.761360 -0.123970 
					CHANNELS 3 Zrotation Yrotation Xrotation
					End Site
					{
						OFFSET 0.000000 0.000000 0.000000 
					}
				}
			}
			JOINT LeftArm
			{
				OFFSET 3.362410 1.200890 -0.311210 
				CHANNELS 3 Zrotation Yrotation Xrotation
				JOINT LeftForeArm
				{
					OFFSET 4.983000 -0.000000 -0.000000 
					CHANNELS 3 Zrotation Yrotation Xrotation
					JOINT LeftHand
					{
						OFFSET 3.483560 -0.000000 -0.000000 
						CHANNELS 3 Zrotation Yrotation Xrotation
						JOINT LeftHandIndex1
						{
							OFFSET 0.715260 -0.000000 -0.000000 
							CHANNELS 3 Zrotation Yrotation Xrotation
							End Site
							{
								OFFSET 0.000000 0.000000 0.000000 
							}
						}
					}
				}
			}
			JOINT RightArm
			{
				OFFSET -3.136600 1.374050 -0.404650 
				CHANNELS 3 Zrotation Yrotation Xrotation
				JOINT RightForeArm
				{
					OFFSET -5.241900 -0.000000 -0.000000 
					CHANNELS 3 Zrotation Yrotation Xrotation
					JOINT RightHand
					{
						OFFSET -3.444170 -0.000000 -0.000000 
						CHANNELS 3 Zrotation Yrotation Xrotation
						JOINT RightHandIndex1
						{
							OFFSET -0.622530 -0.000000 -0.000000 
							CHANNELS 3 Zrotation Yrotation Xrotation
							End Site
							{
								OFFSET 0.000000 0.000000 0.000000 
							}
						}
					}
				}
			}
		}
	}
}
MOTION
Frames: 14
Frame Time: 0.041667
-0.029171 18.189623 3.990140 0.326909 -5.331674 -0.827668 -12.183743 -12.567585 1.097078 -1.129866 2.113582 9.377765 -4.846019 18.982181 -7.845850 0.047400 -1.405500 -3.865200 1.875977 4.195149 -8.005789 0.560665 0.934912 0.444571 0.348857 -4.469872 15.264802 0.000000 0.000000 0.000000 -8.714303 3.068054 12.695494 1.033336 1.949039 -8.610346 9.242582 -7.839897 18.588873 2.838700 -3.399500 5.681300 -77.523122 2.503946 7.863365 10.465736 -16.266791 -1.489694 -0.895654 -0.838624 9.832028 -7.125000 0.000000 0.000000 52.999692 33.841353 37.331222 -147.019271 43.954581 -107.691554 -1.861701 1.466967 -7.755234 7.125000 0.000000 0.000000 
-0.028205 18.189913 3.990719 0.375184 -5.276476 -0.805538 -12.230622 -12.596223 1.094363 -1.129337 2.116868 9.396038 -4.829912 18.932557 -7.875170 0.048900 -1.426800 -3.923900 1.877189 4.194304 -8.007979 0.560662 0.933355 0.443997 0.348310 -4.471398 15.264175 0.000000 0.000000 0.000000 -8.716857 3.031704 12.591496 1.046083 1.937886 -8.611258 9.159239 -7.835184 18.501072 2.821800 -3.405500 5.664000 -77.564486 2.630999 7.823305 10.475859 -16.288279 -1.492029 -0.900382 -0.848844 9.748885 -7.125000 0.000000 0.000000 52.672966 34.196500 36.992092 -147.112700 43.856301 -107.749280 -1.861411 1.458558 -7.504773 7.125000 0.000000 0.000000 
-0.028302 18.188754 3.988787 0.381138 -5.225434 -0.823105 -12.235297 -12.616750 1.112982 -1.130481 2.110434 9.381125 -4.829763 18.928548 -7.849876 0.049900 -1.441400 -3.964200 1.877667 4.194029 -8.007904 0.560604 0.933122 0.443792 0.348383 -4.471701 15.264211 0.000000 0.000000 0.000000 -8.684255 2.990510 12.634318 1.039402 1.919104 -8.571613 9.235249 -7.756192 18.223976 2.856200 -3.370500 5.598800 -77.579873 2.662231 7.701006 10.469364 -16.283900 -1.489643 -0.907279 -0.859248 9.743355 -7.125000 0.000000 0.000000 52.328085 34.636591 36.599378 -147.165748 43.775516 -107.784339 -1.857199 1.418747 -7.247547 7.125000 0.000000 0.000000 
-0.028398 18.188078 3.987145 0.371037 -5.178048 -0.834157 -12.222452 -12.635030 1.126988 -1.133180 2.098103 9.346754 -4.833853 18.934899 -7.793620 0.047000 -1.398600 -3.846300 1.878095 4.193822 -8.007570 0.560527 0.933049 0.443641 0.348569 -4.471855 15.264336 0.000000 0.000000 0.000000 -8.627064 2.965570 12.690401 1.029998 1.908181 -8.526916 9.337335 -7.677256 17.648213 2.901400 -3.343400 5.450900 -77.591711 2.669980 7.601876 10.475786 -16.296520 -1.491714 -0.911813 -0.862304 9.738270 -7.125000 0.000000 0.000000 51.960126 35.103949 36.147103 -147.199183 43.728075 -107.804766 -1.880282 1.613681 -7.052409 7.125000 0.000000 0.000000 
-0.027529 18.189237 3.986276 0.411982 -5.120295 -0.838735 -12.225943 -12.674786 1.119102 -1.135505 2.088102 9.319971 -4.835861 18.934847 -7.746548 0.044700 -1.364800 -3.753100 1.873437 4.196109 -8.001250 0.560827 0.937499 0.445260 0.350617 -4.467383 15.265934 0.000000 0.000000 0.000000 -8.882894 3.073786 13.018361 0.980455 1.945045 -8.492665 9.300900 -7.781255 17.234985 2.850200 -3.389800 5.417600 -77.446461 2.328548 7.608337 10.459844 -16.289401 -1.490474 -0.922954 -0.853948 10.029410 -7.125000 0.000000 0.000000 51.567083 35.616955 35.354712 -147.237165 43.650962 -107.832574 -1.876982 1.644107 -6.870794 7.125000 0.000000 0.000000 
-0.027142 18.190300 3.986276 0.502337 -5.050418 -0.916499 -12.241511 -12.730523 1.136067 -1.136412 2.079692 9.304205 -4.841261 18.944852 -7.713225 0.049400 -1.434900 -3.946300 1.860604 4.203331 -7.982792 0.561461 0.950866 0.450148 0.356471 -4.454034 15.270892 0.000000 0.000000 0.000000 -9.561904 3.405515 14.078937 0.854676 2.053846 -8.417271 9.028003 -8.136158 17.290817 2.621500 -3.517200 5.652700 -77.030491 1.234623 7.842813 10.343852 -16.145804 -1.465121 -0.932383 -0.836448 10.331068 -7.125000 0.000000 0.000000 51.056040 36.348855 33.844021 -147.243867 43.566062 -107.837149 -1.866442 1.604771 -6.564359 7.125000 0.000000 0.000000 
-0.027432 18.189623 3.986662 0.458889 -4.977351 -0.848529 -12.265586 -12.760381 1.170136 -1.139764 2.074750 9.286387 -4.823015 18.891781 -7.722058 0.048400 -1.419200 -3.903100 1.874723 4.195248 -8.003011 0.560791 0.936060 0.444677 0.350251 -4.468827 15.265441 0.000000 0.000000 0.000000 -8.856806 3.023461 12.946268 0.986083 1.927006 -8.489964 9.301780 -7.769211 16.344775 2.875900 -3.414200 5.191000 -77.467344 2.321457 7.359965 10.424414 -16.237436 -1.480157 -0.912196 -0.855693 9.919211 -7.125000 0.000000 0.000000 50.796024 36.254598 34.498313 -147.345420 43.512352 -107.897736 -1.873993 1.605501 -6.426350 7.125000 0.000000 0.000000 
-0.026949 18.188368 3.987435 0.452320 -4.944558 -0.782657 -12.283081 -12.764320 1.159358 -1.141623 2.071819 9.278249 -4.807720 18.844739 -7.731457 0.043400 -1.344900 -3.698300 1.880700 4.192029 -8.012211 0.560516 0.929692 0.442425 0.347566 -4.475130 15.263020 0.000000 0.000000 0.000000 -8.623576 2.883576 12.446875 1.020068 1.880695 -8.492162 9.408572 -7.658956 15.829748 2.967600 -3.391400 4.987800 -77.610527 2.729522 7.168736 10.454652 -16.273678 -1.486399 -0.894002 -0.877316 9.583349 -7.125000 0.000000 0.000000 50.474332 36.416868 34.506326 -147.387640 43.478980 -107.922444 -1.878242 1.624618 -6.213632 7.125000 0.000000 0.000000 
-0.026756 18.189237 3.987049 0.450050 -4.913250 -0.742708 -12.270658 -12.782888 1.098370 -1.138024 2.085883 9.313357 -4.816084 18.865687 -7.693638 0.045400 -1.375800 -3.783500 1.880552 4.192100 -8.012387 0.560549 0.929659 0.442461 0.347543 -4.475127 15.262954 0.000000 0.000000 0.000000 -8.666101 2.872141 12.400907 0.986337 1.875852 -8.492073 9.567823 -7.660732 15.771692 3.008300 -3.383300 4.995300 -77.576842 2.736426 7.006103 10.451345 -16.278607 -1.486633 -0.888588 -0.880763 9.648811 -7.125000 0.000000 0.000000 50.137444 36.744993 34.104713 -147.372926 43.473905 -107.916859 -1.873807 1.633116 -5.933315 7.125000 0.000000 0.000000 
-0.026756 18.190493 3.986566 0.440312 -4.861870 -0.745793 -12.244902 -12.819461 1.072246 -1.134128 2.101725 9.350376 -4.819457 18.870083 -7.648365 0.049600 -1.437000 -3.952200 1.879508 4.192688 -8.011039 0.560613 0.930646 0.442861 0.348010 -4.474116 15.263298 0.000000 0.000000 0.000000 -8.734576 2.876122 12.438523 0.938547 1.874336 -8.502508 9.637220 -7.692790 15.735532 3.016400 -3.391300 5.018100 -77.528215 2.707642 6.878198 10.435687 -16.267534 -1.483750 -0.886341 -0.879748 9.762395 -7.125000 0.000000 0.000000 49.797425 37.043673 33.660083 -147.413721 43.421606 -107.941505 -1.868831 1.596059 -5.679038 7.125000 0.000000 0.000000 
-0.026370 18.189623 3.987628 0.445395 -4.840190 -0.779955 -12.235897 -12.812285 1.100412 -1.135479 2.093585 9.323753 -4.826616 18.889092 -7.593563 0.051900 -1.470800 -4.045400 1.877451 4.193728 -8.008026 0.560740 0.932674 0.443591 0.349095 -4.472079 15.264063 0.000000 0.000000 0.000000 -8.848510 2.932966 12.615704 0.890708 1.893522 -8.500276 9.482712 -7.739063 15.629445 2.952000 -3.413800 5.036900 -77.465607 2.576944 6.844301 10.417146 -16.253179 -1.480035 -0.889102 -0.885391 9.864806 -7.125000 0.000000 0.000000 49.421875 37.345583 33.132573 -147.443908 43.366849 -107.962585 -1.858122 1.517014 -5.374594 7.125000 0.000000 0.000000 
-0.027239 18.189527 3.986855 0.503824 -4.824537 -0.809762 -12.275511 -12.794005 1.128574 -1.137755 2.078236 9.282471 -4.838807 18.925111 -7.517498 0.053500 -1.492600 -4.105300 1.875828 4.194329 -8.006222 0.560911 0.933904 0.444029 0.349850 -4.470809 15.264454 0.000000 0.000000 0.000000 -8.993934 2.991398 12.750739 0.894588 1.918454 -8.528669 9.336321 -7.744990 15.463390 2.892400 -3.417000 5.036000 -77.392918 2.443121 6.862158 10.392427 -16.226712 -1.473891 -0.890967 -0.890246 9.859445 -7.125000 0.000000 0.000000 49.043338 37.666373 32.578146 -147.425907 43.359199 -107.946575 -1.851798 1.447741 -5.089996 7.125000 0.000000 0.000000 
-0.027915 18.189527 3.986566 0.613201 -4.777102 -0.795116 -12.366533 -12.810527 1.129082 -1.139736 2.065149 9.255028 -4.842941 18.937396 -7.462991 0.057600 -1.549000 -4.260800 1.875201 4.194184 -8.006860 0.561112 0.933608 0.443964 0.349812 -4.471001 15.264137 0.000000 0.000000 0.000000 -9.160566 3.016264 12.730217 0.927377 1.931746 -8.526850 9.353403 -7.737529 15.121891 2.896200 -3.418700 4.967300 -77.332276 2.382713 6.827802 10.357845 -16.178797 -1.464326 -0.889095 -0.889128 9.885603 -7.125000 0.000000 0.000000 48.653588 37.942188 32.036630 -147.442122 43.328554 -107.951564 -1.850542 1.431191 -4.715970 7.125000 0.000000 0.000000 
-0.027432 18.189334 3.988594 0.612615 -4.737917 -0.769410 -12.358251 -12.825403 1.139098 -1.146056 2.046396 9.201998 -4.830021 18.897159 -7.480293 0.053500 -1.493000 -4.106500 1.875435 4.194003 -8.007686 0.561141 0.933113 0.443839 0.349709 -4.471444 15.263896 0.000000 0.000000 0.000000 -9.185847 3.029466 12.681304 0.885686 1.936443 -8.490192 9.409918 -7.712727 14.646247 2.923000 -3.418800 4.849700 -77.294742 2.315796 6.723738 10.277193 -16.055104 -1.440449 -0.892182 -0.881851 9.990268 -7.125000 0.000000 0.000000 48.218607 38.174999 31.484788 -147.424375 43.325251 -107.948120 -1.845969 1.479192 -4.117593 7.125000 0.000000 0.000000 
